<svg xmlns="http://www.w3.org/2000/svg" viewBox="0 0 801.54 75.52"><defs fill="#000000"><style>.cls-1{fill:#1a3c5b;}</style></defs><g id="Layer_2" data-name="Layer 2"><g id="Layer_1-2" data-name="Layer 1"><path class="cls-1" d="M90.17,53.7a7.07,7.07,0,0,1-2.48-2.47,6.52,6.52,0,0,1-.91-3.41V26h6.48V47.57a.54.54,0,0,0,.17.42.55.55,0,0,0,.42.17h15a.54.54,0,0,0,.42-.17.54.54,0,0,0,.18-.42V26h6.48V47.82a6.53,6.53,0,0,1-.92,3.41,7.15,7.15,0,0,1-2.45,2.47,6.44,6.44,0,0,1-3.46.94H93.6A6.46,6.46,0,0,1,90.17,53.7Z" fill="#000000"/><path class="cls-1" d="M121.2,54.64V16.56h6.47V26H143.5a6.36,6.36,0,0,1,3.41.94,7.39,7.39,0,0,1,2.47,2.47,6.36,6.36,0,0,1,.94,3.41V54.64h-6.48V33a.57.57,0,0,0-.17-.42.57.57,0,0,0-.42-.17h-15a.6.6,0,0,0-.6.59V54.64Z" fill="#000000"/><path class="cls-1" d="M157.49,53.7A7.39,7.39,0,0,1,155,51.23a6.36,6.36,0,0,1-.94-3.41v-15a6.36,6.36,0,0,1,.94-3.41,7.48,7.48,0,0,1,2.47-2.47,6.37,6.37,0,0,1,3.42-.94h15.47a6.49,6.49,0,0,1,3.44.94,7.12,7.12,0,0,1,2.47,2.47,6.53,6.53,0,0,1,.92,3.41v15a6.53,6.53,0,0,1-.92,3.41,7.12,7.12,0,0,1-2.44,2.47,6.5,6.5,0,0,1-3.47.94H160.91A6.37,6.37,0,0,1,157.49,53.7Zm3.66-5.54h15a.57.57,0,0,0,.42-.17.57.57,0,0,0,.17-.42V33a.58.58,0,0,0-.59-.59h-15a.58.58,0,0,0-.59.59V47.57a.57.57,0,0,0,.17.42A.57.57,0,0,0,161.15,48.16Z" fill="#000000"/><path class="cls-1" d="M188.45,54.64V16.56h6.48V37H200L210.26,26h6.92v1.78L205.76,40.3l11.37,12.56v1.78h-6.87L200,43.56h-5.09V54.64Z" fill="#000000"/><path class="cls-1" d="M327.09,53.7a7.3,7.3,0,0,1-2.47-2.47,6.36,6.36,0,0,1-.94-3.41V46.73h6.48v.84a.58.58,0,0,0,.59.59h15a.54.54,0,0,0,.42-.17.54.54,0,0,0,.18-.42V44.16a.62.62,0,0,0-.6-.6H330.5a6.44,6.44,0,0,1-3.41-.93,7.42,7.42,0,0,1-2.47-2.48,6.36,6.36,0,0,1-.94-3.41v-4a6.36,6.36,0,0,1,.94-3.41,7.39,7.39,0,0,1,2.47-2.47A6.36,6.36,0,0,1,330.5,26H346a6.44,6.44,0,0,1,3.46.94,7.39,7.39,0,0,1,2.47,2.47,6.36,6.36,0,0,1,.94,3.41v1.09h-6.52V33a.6.6,0,0,0-.6-.59h-15a.57.57,0,0,0-.42.17.57.57,0,0,0-.17.42v3.41a.54.54,0,0,0,.17.42.54.54,0,0,0,.42.18H346a6.44,6.44,0,0,1,3.46.94,7.3,7.3,0,0,1,2.47,2.47,6.36,6.36,0,0,1,.94,3.41v4a6.36,6.36,0,0,1-.94,3.41,7.3,7.3,0,0,1-2.47,2.47,6.44,6.44,0,0,1-3.46.94H330.5A6.36,6.36,0,0,1,327.09,53.7Z" fill="#000000"/><path class="cls-1" d="M361.26,53.7a7.3,7.3,0,0,1-2.47-2.47,6.36,6.36,0,0,1-.94-3.41V17.16h6.48V26H375.5v6.48H364.33V47.57a.58.58,0,0,0,.59.59H375.5v6.48H364.67A6.36,6.36,0,0,1,361.26,53.7Z" fill="#000000"/><path class="cls-1" d="M387.32,54.64a6.52,6.52,0,0,1-3.44-.94,7,7,0,0,1-2.47-2.47,6.52,6.52,0,0,1-.91-3.41V37h22.64V33a.57.57,0,0,0-.17-.42.57.57,0,0,0-.42-.17H380.5V26h22.3a6.52,6.52,0,0,1,3.44.94,7.21,7.21,0,0,1,2.47,2.47,6.52,6.52,0,0,1,.91,3.41V54.64Zm.25-6.48h15.57V42.87H387v4.7a.54.54,0,0,0,.18.42A.54.54,0,0,0,387.57,48.16Z" fill="#000000"/><path class="cls-1" d="M418.28,53.7a7.33,7.33,0,0,1-2.48-2.47,6.45,6.45,0,0,1-.94-3.41V17.16h6.48V26h11.18v6.48H421.34V47.57a.58.58,0,0,0,.6.59h10.58v6.48H421.69A6.34,6.34,0,0,1,418.28,53.7Z" fill="#000000"/><path class="cls-1" d="M439.84,53.7a7.33,7.33,0,0,1-2.48-2.47,6.45,6.45,0,0,1-.94-3.41v-15a6.45,6.45,0,0,1,.94-3.41,7.42,7.42,0,0,1,2.48-2.47,6.34,6.34,0,0,1,3.41-.94h15.48a6.48,6.48,0,0,1,3.43.94,7.15,7.15,0,0,1,2.48,2.47,6.52,6.52,0,0,1,.91,3.41V43.56H442.9v4a.54.54,0,0,0,.18.42.54.54,0,0,0,.42.17h22.05v6.48h-22.3A6.34,6.34,0,0,1,439.84,53.7Zm3.06-16h16.17V33a.58.58,0,0,0-.59-.59h-15a.6.6,0,0,0-.6.59Z" fill="#000000"/><path class="cls-1" d="M48.84,25.79a.53.53,0,0,1,.2.42V47.47a.53.53,0,0,1-.2.42.63.63,0,0,1-.45.17H27.08a.58.58,0,0,1-.59-.59V26.21a.54.54,0,0,1,.17-.42.54.54,0,0,1,.42-.18H48.39A.64.64,0,0,1,48.84,25.79Z" fill="#000000"/><path class="cls-1" d="M45.18,0H0V75.52H75.52V30.34A30.34,30.34,0,0,0,45.18,0ZM55.61,47.77a6.46,6.46,0,0,1-.94,3.43,7,7,0,0,1-2.52,2.5,6.61,6.61,0,0,1-3.46.94H20V19H48.69a6.61,6.61,0,0,1,3.46.94,7,7,0,0,1,2.52,2.49,6.52,6.52,0,0,1,.94,3.44Z" fill="#000000"/><path class="cls-1" d="M279.53,0H234.34V75.52h75.53V30.34A30.34,30.34,0,0,0,279.53,0Zm7.56,25.61H260.88v7.92h21.06v6.62H260.88v7.91h26.21v6.58H254.3V19h32.79Z" fill="#000000"/><path class="cls-1" d="M530.31,0H485.12V75.52h75.53V30.34A30.34,30.34,0,0,0,530.31,0Zm10.38,54.64h-7.17L511.61,28.58V54.64h-6.53V19h7.17l21.86,26V19h6.58Z" fill="#000000"/><path class="cls-1" d="M580.75,54.31a6.58,6.58,0,0,1-3.44-.93,7.15,7.15,0,0,1-2.47-2.48,6.53,6.53,0,0,1-.92-3.41V36.71h22.65v-4a.58.58,0,0,0-.59-.59H573.92V25.63h22.3a6.58,6.58,0,0,1,3.44.94,7.07,7.07,0,0,1,2.47,2.48,6.5,6.5,0,0,1,.92,3.41V54.31Zm.24-6.47h15.58V42.55H580.4v4.69a.6.6,0,0,0,.59.6Z" fill="#000000"/><path class="cls-1" d="M620.85,54.31,605.08,25.63h7.46l11.33,20.82,11.27-20.82h7.47L626.78,54.31Z" fill="#000000"/><path class="cls-1" d="M646,22.76V16.24h6.48v6.52Zm0,31.55V25.63h6.48V54.31Z" fill="#000000"/><path class="cls-1" d="M661.25,65.64V59.11h17.26a.58.58,0,0,0,.59-.59V54.31H663.28a6.5,6.5,0,0,1-3.39-.93,7.41,7.41,0,0,1-2.5-2.48,6.45,6.45,0,0,1-.94-3.41v-15a6.43,6.43,0,0,1,.94-3.41,7.32,7.32,0,0,1,2.5-2.48,6.51,6.51,0,0,1,3.39-.94H678.8a6.49,6.49,0,0,1,3.42.94,7.15,7.15,0,0,1,2.44,2.48,6.5,6.5,0,0,1,.92,3.41V58.81a6.84,6.84,0,0,1-.89,3.47,6.8,6.8,0,0,1-5.89,3.36Zm2.27-17.8h15a.6.6,0,0,0,.59-.6V32.7a.58.58,0,0,0-.59-.59h-15a.58.58,0,0,0-.59.59V47.24a.6.6,0,0,0,.59.6Z" fill="#000000"/><path class="cls-1" d="M696.51,54.31a6.6,6.6,0,0,1-3.44-.93,7.15,7.15,0,0,1-2.47-2.48,6.53,6.53,0,0,1-.92-3.41V36.71h22.65v-4a.57.57,0,0,0-.17-.42.61.61,0,0,0-.42-.17H689.68V25.63H712a6.55,6.55,0,0,1,3.43.94,7.1,7.1,0,0,1,2.48,2.48,6.5,6.5,0,0,1,.91,3.41V54.31Zm.25-6.47h15.57V42.55H696.16v4.69a.62.62,0,0,0,.6.6Z" fill="#000000"/><path class="cls-1" d="M727.47,53.38A7.44,7.44,0,0,1,725,50.9a6.45,6.45,0,0,1-.94-3.41V16.83h6.48v8.8h11.18v6.48H730.53V47.24a.6.6,0,0,0,.59.6h10.59v6.47H730.88A6.42,6.42,0,0,1,727.47,53.38Z" fill="#000000"/><path class="cls-1" d="M749,53.38a7.51,7.51,0,0,1-2.47-2.48,6.45,6.45,0,0,1-.94-3.41v-15a6.43,6.43,0,0,1,.94-3.41A7.42,7.42,0,0,1,749,26.57a6.49,6.49,0,0,1,3.42-.94h15.47a6.58,6.58,0,0,1,3.44.94,7.07,7.07,0,0,1,2.47,2.48,6.5,6.5,0,0,1,.92,3.41v15a6.53,6.53,0,0,1-.92,3.41,7.24,7.24,0,0,1-2.44,2.48,6.58,6.58,0,0,1-3.47.93H752.44A6.48,6.48,0,0,1,749,53.38Zm3.66-5.54h15a.6.6,0,0,0,.59-.6V32.7a.58.58,0,0,0-.59-.59h-15a.58.58,0,0,0-.59.59V47.24a.6.6,0,0,0,.59.6Z" fill="#000000"/><path class="cls-1" d="M778.79,54.31V32.46a6.43,6.43,0,0,1,.94-3.41,7.32,7.32,0,0,1,2.5-2.48,6.51,6.51,0,0,1,3.39-.94h15.92v6.48H785.87a.6.6,0,0,0-.6.59V54.31Z" fill="#000000"/></g></g></svg>